<svg width="869" height="247" viewBox="0 0 869 247" fill="none" xmlns="http://www.w3.org/2000/svg">
<path d="M43.225 241.8H0L85.8 4.22488H128.375L214.175 241.8H170.3L151.125 186.875H62.4L43.225 241.8ZM101.725 75.0749L74.75 151.775H139.1L111.8 75.0749C109.85 68.8999 107.575 61.7499 106.925 56.8749C105.95 61.4249 104 68.5749 101.725 75.0749ZM265.091 241.8H228.366V-0.000106812H268.016V104.65C278.416 86.7749 299.866 76.0499 324.241 76.0499C370.066 76.0499 398.016 111.8 398.016 162.5C398.016 211.9 367.791 246.025 321.641 246.025C297.591 246.025 277.116 235.3 267.691 216.775L265.091 241.8ZM268.341 160.875C268.341 189.8 286.216 209.625 313.516 209.625C341.466 209.625 358.041 189.475 358.041 160.875C358.041 132.275 341.466 111.8 313.516 111.8C286.216 111.8 268.341 131.95 268.341 160.875ZM410.411 161.2C410.411 111.15 446.487 76.6999 496.212 76.6999C545.937 76.6999 582.012 111.15 582.012 161.2C582.012 211.25 545.937 245.7 496.212 245.7C446.487 245.7 410.411 211.25 410.411 161.2ZM450.062 161.2C450.062 190.45 468.912 210.275 496.212 210.275C523.512 210.275 542.362 190.45 542.362 161.2C542.362 131.95 523.512 112.125 496.212 112.125C468.912 112.125 450.062 131.95 450.062 161.2ZM708.756 81.2499H748.406V161.525V241.8H711.681L708.756 220.35C699.006 235.625 678.206 246.025 656.756 246.025C619.706 246.025 597.931 221 597.931 181.675V81.2499H637.581V167.7C637.581 198.25 649.606 210.6 671.706 210.6C696.731 210.6 708.756 195.975 708.756 165.425V81.2499ZM864.109 207.35L868.659 239.525C859.884 243.425 849.484 245.375 838.109 245.375C807.559 245.375 788.384 229.775 788.384 191.425V114.4H763.684V81.2499H788.384V31.1999H827.709V81.2499H864.434V114.4H827.709V184.6C827.709 203.775 836.159 210.275 848.184 210.275C852.734 210.275 858.259 209.3 864.109 207.35Z" fill="white" fill-opacity="0.2"/>
</svg>
