<svg width="466" height="464" viewBox="0 0 466 464" fill="none" xmlns="http://www.w3.org/2000/svg">
<path d="M466 0.880371H0V464H466V0.880371Z" fill="#EA0029"/>
<path d="M465.921 0.880371H0V464H465.921V0.880371Z" fill="#EA0029"/>
<mask id="mask0_6_343" style="mask-type:luminance" maskUnits="userSpaceOnUse" x="0" y="0" width="466" height="464">
<path d="M465.921 0.880371H0V464H465.921V0.880371Z" fill="white"/>
</mask>
<g mask="url(#mask0_6_343)">
<path d="M185.655 386.419L164.912 441.89L144.248 386.419H125.01L156.361 463.921H173.067L204.418 386.419H185.655Z" fill="white"/>
<path d="M254.136 386.419H236.719V463.921H254.136V386.419Z" fill="white"/>
<path d="M294.436 386.419H330.617C340.671 386.419 348.509 389.252 353.655 394.366C358.089 398.772 360.464 404.91 360.464 412.384V412.62C360.464 425.367 353.576 433.314 343.522 437.012L362.839 465.101H342.492L325.55 439.923H311.853V465.101H294.436V386.419ZM329.508 424.58C337.98 424.58 342.888 420.095 342.888 413.486V413.25C342.888 405.854 337.663 401.998 329.192 401.998H311.853V424.58H329.508Z" fill="white"/>
<path d="M397.121 386.419H414.539V420.882L446.603 386.419H467.662L435.44 419.859L469.166 465.101H448.186L423.722 431.661L414.539 441.024V465.101H397.121V386.419Z" fill="white"/>
</g>
</svg>
