<svg width="20" height="21" viewBox="0 0 20 21" fill="none" xmlns="http://www.w3.org/2000/svg">
<path d="M10 7.16406C9.20435 7.16406 8.44129 7.48013 7.87868 8.04274C7.31607 8.60535 7 9.36841 7 10.1641C7 10.9597 7.31607 11.7228 7.87868 12.2854C8.44129 12.848 9.20435 13.1641 10 13.1641C10.7957 13.1641 11.5587 12.848 12.1213 12.2854C12.6839 11.7228 13 10.9597 13 10.1641C13 9.36841 12.6839 8.60535 12.1213 8.04274C11.5587 7.48013 10.7957 7.16406 10 7.16406ZM10 5.16406C11.3261 5.16406 12.5979 5.69085 13.5355 6.62853C14.4732 7.56621 15 8.83798 15 10.1641C15 11.4901 14.4732 12.7619 13.5355 13.6996C12.5979 14.6373 11.3261 15.1641 10 15.1641C8.67392 15.1641 7.40215 14.6373 6.46447 13.6996C5.52678 12.7619 5 11.4901 5 10.1641C5 8.83798 5.52678 7.56621 6.46447 6.62853C7.40215 5.69085 8.67392 5.16406 10 5.16406ZM16.5 4.91406C16.5 5.24558 16.3683 5.56353 16.1339 5.79795C15.8995 6.03237 15.5815 6.16406 15.25 6.16406C14.9185 6.16406 14.6005 6.03237 14.3661 5.79795C14.1317 5.56353 14 5.24558 14 4.91406C14 4.58254 14.1317 4.2646 14.3661 4.03018C14.6005 3.79576 14.9185 3.66406 15.25 3.66406C15.5815 3.66406 15.8995 3.79576 16.1339 4.03018C16.3683 4.2646 16.5 4.58254 16.5 4.91406ZM10 2.16406C7.526 2.16406 7.122 2.17106 5.971 2.22206C5.187 2.25906 4.661 2.36406 4.173 2.55406C3.739 2.72206 3.426 2.92306 3.093 3.25706C2.78001 3.55946 2.53935 3.92865 2.389 4.33706C2.199 4.82706 2.094 5.35206 2.058 6.13506C2.006 7.23906 2 7.62506 2 10.1641C2 12.6381 2.007 13.0421 2.058 14.1931C2.095 14.9761 2.2 15.5031 2.389 15.9901C2.559 16.4251 2.759 16.7381 3.091 17.0701C3.428 17.4061 3.741 17.6071 4.171 17.7731C4.665 17.9641 5.191 18.0701 5.971 18.1061C7.075 18.1581 7.461 18.1641 10 18.1641C12.474 18.1641 12.878 18.1571 14.029 18.1061C14.811 18.0691 15.338 17.9641 15.826 17.7751C16.259 17.6061 16.574 17.4051 16.906 17.0731C17.243 16.7361 17.444 16.4231 17.61 15.9931C17.8 15.5001 17.906 14.9731 17.942 14.1931C17.994 13.0891 18 12.7031 18 10.1641C18 7.69006 17.993 7.28606 17.942 6.13506C17.905 5.35306 17.8 4.82506 17.61 4.33706C17.4593 3.92906 17.2191 3.56002 16.907 3.25706C16.6047 2.94391 16.2355 2.70323 15.827 2.55306C15.337 2.36306 14.811 2.25806 14.029 2.22206C12.925 2.17006 12.539 2.16406 10 2.16406ZM10 0.164062C12.717 0.164062 13.056 0.174063 14.122 0.224062C15.187 0.274063 15.912 0.441063 16.55 0.689062C17.21 0.943062 17.766 1.28706 18.322 1.84206C18.8305 2.34196 19.224 2.94665 19.475 3.61406C19.722 4.25106 19.89 4.97706 19.94 6.04206C19.987 7.10806 20 7.44706 20 10.1641C20 12.8811 19.99 13.2201 19.94 14.2861C19.89 15.3511 19.722 16.0761 19.475 16.7141C19.2247 17.3818 18.8311 17.9867 18.322 18.4861C17.822 18.9944 17.2173 19.3878 16.55 19.6391C15.913 19.8861 15.187 20.0541 14.122 20.1041C13.056 20.1511 12.717 20.1641 10 20.1641C7.283 20.1641 6.944 20.1541 5.878 20.1041C4.813 20.0541 4.088 19.8861 3.45 19.6391C2.78233 19.3885 2.17753 18.995 1.678 18.4861C1.16941 17.9862 0.775931 17.3815 0.525 16.7141C0.277 16.0771 0.11 15.3511 0.06 14.2861C0.013 13.2201 0 12.8811 0 10.1641C0 7.44706 0.01 7.10806 0.06 6.04206C0.11 4.97606 0.277 4.25206 0.525 3.61406C0.775236 2.94624 1.1688 2.34138 1.678 1.84206C2.17767 1.33329 2.78243 0.939793 3.45 0.689062C4.088 0.441063 4.812 0.274063 5.878 0.224062C6.944 0.177063 7.283 0.164062 10 0.164062Z" fill="#161212"/>
</svg>
