<svg width="20" height="19" viewBox="0 0 20 19" fill="none" xmlns="http://www.w3.org/2000/svg">
<path d="M4.94043 2.16406C4.94017 2.6945 4.7292 3.2031 4.35394 3.57798C3.97868 3.95287 3.46986 4.16333 2.93943 4.16306C2.409 4.1628 1.90039 3.95183 1.52551 3.57657C1.15062 3.20131 0.940165 2.6925 0.94043 2.16206C0.940695 1.63163 1.15166 1.12303 1.52692 0.748142C1.90218 0.373257 2.411 0.162798 2.94143 0.163063C3.47186 0.163328 3.98047 0.374296 4.35535 0.749557C4.73024 1.12482 4.9407 1.63363 4.94043 2.16406ZM5.00043 5.64406H1.00043V18.1641H5.00043V5.64406ZM11.3204 5.64406H7.34043V18.1641H11.2804V11.5941C11.2804 7.93406 16.0504 7.59406 16.0504 11.5941V18.1641H20.0004V10.2341C20.0004 4.06406 12.9404 4.29406 11.2804 7.32406L11.3204 5.64406Z" fill="#161212"/>
</svg>
