<svg width="18" height="22" viewBox="0 0 18 22" fill="none" xmlns="http://www.w3.org/2000/svg">
<path d="M15.364 15.5969L9 21.9609L2.636 15.5969C1.37734 14.3383 0.520187 12.7346 0.172928 10.9888C-0.17433 9.24296 0.00390732 7.43337 0.685099 5.78884C1.36629 4.14431 2.51984 2.73871 3.99988 1.74978C5.47992 0.760853 7.21998 0.233015 9 0.233015C10.78 0.233015 12.5201 0.760853 14.0001 1.74978C15.4802 2.73871 16.6337 4.14431 17.3149 5.78884C17.9961 7.43337 18.1743 9.24296 17.8271 10.9888C17.4798 12.7346 16.6227 14.3383 15.364 15.5969ZM9 13.2329C10.0609 13.2329 11.0783 12.8115 11.8284 12.0614C12.5786 11.3112 13 10.2938 13 9.23294C13 8.17207 12.5786 7.15466 11.8284 6.40451C11.0783 5.65436 10.0609 5.23294 9 5.23294C7.93914 5.23294 6.92172 5.65436 6.17158 6.40451C5.42143 7.15466 5 8.17207 5 9.23294C5 10.2938 5.42143 11.3112 6.17158 12.0614C6.92172 12.8115 7.93914 13.2329 9 13.2329ZM9 11.2329C8.46957 11.2329 7.96086 11.0222 7.58579 10.6472C7.21072 10.2721 7 9.76337 7 9.23294C7 8.70251 7.21072 8.1938 7.58579 7.81872C7.96086 7.44365 8.46957 7.23294 9 7.23294C9.53044 7.23294 10.0391 7.44365 10.4142 7.81872C10.7893 8.1938 11 8.70251 11 9.23294C11 9.76337 10.7893 10.2721 10.4142 10.6472C10.0391 11.0222 9.53044 11.2329 9 11.2329Z" fill="#E81D2C"/>
</svg>
