<svg width="18" height="22" viewBox="0 0 25 19" fill="none" xmlns="http://www.w3.org/2000/svg">
<path d="M1.62502 0.496094H23.375C23.6955 0.496094 24.0028 0.60145 24.2294 0.788986C24.4561 0.976522 24.5834 1.23088 24.5834 1.49609V17.4961C24.5834 17.7613 24.4561 18.0157 24.2294 18.2032C24.0028 18.3907 23.6955 18.4961 23.375 18.4961H1.62502C1.30455 18.4961 0.997206 18.3907 0.7706 18.2032C0.543993 18.0157 0.416687 17.7613 0.416687 17.4961V1.49609C0.416687 1.23088 0.543993 0.976522 0.7706 0.788986C0.997206 0.60145 1.30455 0.496094 1.62502 0.496094ZM12.5725 9.17909L4.82469 3.73409L3.2599 5.25809L12.5882 11.8131L21.7486 5.25309L20.1681 3.74009L12.5737 9.17909H12.5725Z" fill="#E81D2C"/>
</svg>
