<svg width="18" height="22" viewBox="0 0 20 21" fill="none" xmlns="http://www.w3.org/2000/svg">
<path d="M5 15.7598H15V20.7598H5V15.7598ZM17 18.7598V13.7598H3V18.7598H1C0.734784 18.7598 0.48043 18.6544 0.292893 18.4669C0.105357 18.2793 0 18.025 0 17.7598V7.75977C0 7.49455 0.105357 7.2402 0.292893 7.05266C0.48043 6.86512 0.734784 6.75977 1 6.75977H19C19.2652 6.75977 19.5196 6.86512 19.7071 7.05266C19.8946 7.2402 20 7.49455 20 7.75977V17.7598C20 18.025 19.8946 18.2793 19.7071 18.4669C19.5196 18.6544 19.2652 18.7598 19 18.7598H17ZM3 8.75977V10.7598H6V8.75977H3ZM5 0.759766H15C15.2652 0.759766 15.5196 0.865122 15.7071 1.05266C15.8946 1.24019 16 1.49455 16 1.75977V4.75977H4V1.75977C4 1.49455 4.10536 1.24019 4.29289 1.05266C4.48043 0.865122 4.73478 0.759766 5 0.759766Z" fill="#E81D2C"/>
</svg>
