<svg width="116" height="84" viewBox="0 0 116 84" fill="none" xmlns="http://www.w3.org/2000/svg">
<path d="M51.3237 59.624C51.3237 73.924 41.5737 83.999 27.2737 83.999C11.9987 83.999 0.94873 71.649 0.94873 52.149C0.94873 24.849 19.1487 3.72402 45.1487 0.474014V16.074C31.1737 18.674 21.4237 27.449 21.4237 38.824C24.0237 37.849 26.9487 37.199 30.5237 37.199C42.2237 37.199 51.3237 45.649 51.3237 59.624ZM115.674 59.624C115.674 73.924 105.924 83.999 91.6237 83.999C76.3487 83.999 65.2987 71.649 65.2987 52.149C65.2987 24.849 83.4987 3.72402 109.499 0.474014V16.074C95.5237 18.674 85.4487 27.449 85.4487 39.149C88.0487 37.849 90.9737 37.199 94.5487 37.199C106.249 37.199 115.674 45.649 115.674 59.624Z" fill="#161212"/>
</svg>
