<svg width="156" height="19" viewBox="0 0 156 19" fill="none" xmlns="http://www.w3.org/2000/svg">
<path d="M10.4746 14.5223L4.5966 18.1123L6.1946 11.4123L0.9646 6.9323L7.8296 6.3823L10.4746 0.0223045L13.1196 6.3823L19.9856 6.9323L14.7546 11.4123L16.3526 18.1123L10.4746 14.5223Z" fill="#E81D2C"/>
<path d="M44.4746 14.5223L38.5966 18.1123L40.1946 11.4123L34.9646 6.9323L41.8296 6.3823L44.4746 0.0223045L47.1196 6.3823L53.9856 6.9323L48.7546 11.4123L50.3526 18.1123L44.4746 14.5223Z" fill="#E81D2C"/>
<path d="M78.4746 14.5223L72.5966 18.1123L74.1946 11.4123L68.9646 6.9323L75.8296 6.3823L78.4746 0.0223045L81.1196 6.3823L87.9856 6.9323L82.7546 11.4123L84.3526 18.1123L78.4746 14.5223Z" fill="#E81D2C"/>
<path d="M112.475 14.5223L106.597 18.1123L108.195 11.4123L102.965 6.9323L109.83 6.3823L112.475 0.0223045L115.12 6.3823L121.986 6.9323L116.755 11.4123L118.353 18.1123L112.475 14.5223Z" fill="#E81D2C"/>
<path d="M146.475 14.5223L140.597 18.1123L142.195 11.4123L136.965 6.9323L143.83 6.3823L146.475 0.0223045L149.12 6.3823L155.986 6.9323L150.755 11.4123L152.353 18.1123L146.475 14.5223Z" fill="#E81D2C"/>
</svg>
