<svg width="156" height="19" viewBox="0 0 156 19" fill="none" xmlns="http://www.w3.org/2000/svg">
<path d="M9.51 14.4998L3.632 18.0898L5.23 11.3898L0 6.90984L6.865 6.35984L9.51 -0.000156403L12.155 6.35984L19.021 6.90984L13.79 11.3898L15.388 18.0898L9.51 14.4998Z" fill="white"/>
<path d="M43.51 14.4998L37.632 18.0898L39.23 11.3898L34 6.90984L40.865 6.35984L43.51 -0.000156403L46.155 6.35984L53.021 6.90984L47.79 11.3898L49.388 18.0898L43.51 14.4998Z" fill="white"/>
<path d="M77.9897 14.8377L72.1117 18.4277L73.7097 11.7277L68.4797 7.24773L75.3447 6.69773L77.9897 0.337734L80.6347 6.69773L87.5007 7.24773L82.2697 11.7277L83.8677 18.4277L77.9897 14.8377Z" fill="white"/>
<path d="M111.989 14.8377L106.111 18.4277L107.709 11.7277L102.479 7.24773L109.344 6.69773L111.989 0.337734L114.634 6.69773L121.5 7.24773L116.269 11.7277L117.867 18.4277L111.989 14.8377Z" fill="white"/>
<path d="M145.989 14.8377L140.111 18.4277L141.709 11.7277L136.479 7.24773L143.344 6.69773L145.989 0.337734L148.634 6.69773L155.5 7.24773L150.269 11.7277L151.867 18.4277L145.989 14.8377Z" fill="white"/>
</svg>
